<svg width="1652" height="520" viewBox="0 0 1652 520" fill="none" xmlns="http://www.w3.org/2000/svg">
<path fill-rule="evenodd" clip-rule="evenodd" d="M235.581 15.3881C289.623 10.5028 345.407 -9.15527 394.2 18.2837C447.367 48.1828 491.648 103.144 508.564 168.904C525.308 233.994 512.409 306.512 483.539 365.587C457.679 418.5 406.968 443.681 360.531 471.808C320.973 495.769 280.129 518.497 235.581 515.778C192.486 513.148 156.47 483.583 119.816 457.116C79.9734 428.347 32.4442 405.729 13.8622 355.68C-5.35047 303.933 7.0637 244.935 20.9957 190.952C35.2209 135.834 53.4418 78.5554 93.9333 45.427C134.162 12.5139 186.529 19.8222 235.581 15.3881Z" stroke="black" stroke-width="8" stroke-dasharray="16 16"/>
<path d="M213.953 179.34H198.59V221H186.25V179.34H171.168V169.812H213.953V179.34ZM216.062 221V182.961H232.375C237.602 182.961 241.598 183.875 244.363 185.703C247.152 187.531 248.547 190.168 248.547 193.613C248.547 195.371 247.938 196.953 246.719 198.359C245.5 199.742 243.719 200.809 241.375 201.559C244.398 202.074 246.73 203.082 248.371 204.582C250.012 206.059 250.832 207.91 250.832 210.137C250.832 213.723 249.473 216.43 246.754 218.258C244.059 220.062 240.168 220.977 235.082 221H216.062ZM227.945 205.496V211.93H234.871C236.348 211.93 237.402 211.672 238.035 211.156C238.668 210.641 238.984 209.855 238.984 208.801C238.984 206.691 237.766 205.59 235.328 205.496H227.945ZM227.945 198.184H232.832C234.262 198.184 235.258 197.949 235.82 197.48C236.406 196.988 236.699 196.273 236.699 195.336C236.699 194.117 236.348 193.262 235.645 192.77C234.941 192.277 233.852 192.031 232.375 192.031H227.945V198.184ZM254.207 201.629C254.207 197.832 254.945 194.457 256.422 191.504C257.898 188.527 260.02 186.242 262.785 184.648C265.551 183.055 268.797 182.258 272.523 182.258C278.219 182.258 282.707 184.027 285.988 187.566C289.27 191.082 290.91 195.875 290.91 201.945V202.367C290.91 208.297 289.258 213.008 285.953 216.5C282.672 219.969 278.219 221.703 272.594 221.703C267.18 221.703 262.832 220.086 259.551 216.852C256.27 213.594 254.5 209.188 254.242 203.633L254.207 201.629ZM266.055 202.367C266.055 205.883 266.605 208.461 267.707 210.102C268.809 211.742 270.438 212.562 272.594 212.562C276.812 212.562 278.969 209.316 279.062 202.824V201.629C279.062 194.809 276.883 191.398 272.523 191.398C268.562 191.398 266.418 194.34 266.09 200.223L266.055 202.367ZM318.262 182.961H330.145V221H318.262V198.852L307.82 221H295.902V182.961H307.82V205.039L318.262 182.961ZM326.312 166.93C326.312 170.141 325.129 172.742 322.762 174.734C320.395 176.727 317.242 177.723 313.305 177.723C309.367 177.723 306.215 176.727 303.848 174.734C301.48 172.742 300.297 170.141 300.297 166.93H308.348C308.348 168.336 308.781 169.438 309.648 170.234C310.539 171.008 311.758 171.395 313.305 171.395C314.852 171.395 316.047 171.02 316.891 170.27C317.758 169.496 318.191 168.383 318.191 166.93H326.312ZM168.18 253.812V305H155.84V263.34H144.344L143.5 280.531C143.148 286.461 142.328 291.195 141.039 294.734C139.75 298.273 137.91 300.863 135.52 302.504C133.152 304.121 129.918 304.953 125.816 305H122.512V295.508L124.234 295.332C126.695 294.98 128.477 293.48 129.578 290.832C130.68 288.16 131.395 283.672 131.723 277.367L132.602 253.812H168.18ZM173.84 285.629C173.84 281.832 174.578 278.457 176.055 275.504C177.531 272.527 179.652 270.242 182.418 268.648C185.184 267.055 188.43 266.258 192.156 266.258C197.852 266.258 202.34 268.027 205.621 271.566C208.902 275.082 210.543 279.875 210.543 285.945V286.367C210.543 292.297 208.891 297.008 205.586 300.5C202.305 303.969 197.852 305.703 192.227 305.703C186.812 305.703 182.465 304.086 179.184 300.852C175.902 297.594 174.133 293.188 173.875 287.633L173.84 285.629ZM185.688 286.367C185.688 289.883 186.238 292.461 187.34 294.102C188.441 295.742 190.07 296.562 192.227 296.562C196.445 296.562 198.602 293.316 198.695 286.824V285.629C198.695 278.809 196.516 275.398 192.156 275.398C188.195 275.398 186.051 278.34 185.723 284.223L185.688 286.367ZM242.395 276.102H227.418V305H215.535V266.961H242.395V276.102ZM243.73 285.629C243.73 281.832 244.469 278.457 245.945 275.504C247.422 272.527 249.543 270.242 252.309 268.648C255.074 267.055 258.32 266.258 262.047 266.258C267.742 266.258 272.23 268.027 275.512 271.566C278.793 275.082 280.434 279.875 280.434 285.945V286.367C280.434 292.297 278.781 297.008 275.477 300.5C272.195 303.969 267.742 305.703 262.117 305.703C256.703 305.703 252.355 304.086 249.074 300.852C245.793 297.594 244.023 293.188 243.766 287.633L243.73 285.629ZM255.578 286.367C255.578 289.883 256.129 292.461 257.23 294.102C258.332 295.742 259.961 296.562 262.117 296.562C266.336 296.562 268.492 293.316 268.586 286.824V285.629C268.586 278.809 266.406 275.398 262.047 275.398C258.086 275.398 255.941 278.34 255.613 284.223L255.578 286.367ZM317.91 276.031H305.922V305H294.004V276.031H282.191V266.961H317.91V276.031ZM344.488 266.961H356.371V305H344.488V282.852L334.047 305H322.129V266.961H334.047V289.039L344.488 266.961ZM396.73 305H384.812V276.102H374.336V305H362.488V266.961H396.73V305Z" fill="black"/>
<path d="M722.906 185.625H747.586V288H722.906V223.453L686.133 288H661.453V185.625H686.133V250.242L722.906 185.625ZM809.25 261.844L826.477 211.922H856.289V288H832.523V245.812L817.195 288H801.445L786.961 248.062V288H763.195V211.922H792.305L809.25 261.844ZM938.344 211.922V288H914.719V262.828H905.578L892.148 288H868.523L884.133 258.82C879.586 256.664 876.07 253.805 873.586 250.242C871.148 246.68 869.93 242.648 869.93 238.148C869.93 230.414 873.023 224.156 879.211 219.375C885.398 214.547 893.461 212.062 903.398 211.922H938.344ZM893.625 238.992C893.625 241.289 894.562 243.281 896.438 244.969C898.359 246.609 900.82 247.477 903.82 247.57H914.719V230.062H904.172C901.078 230.062 898.547 230.93 896.578 232.664C894.609 234.398 893.625 236.508 893.625 238.992ZM1021.73 261.422H1014.63V288H990.867V211.922H1014.63V239.273H1021.45L1033.55 211.922H1063.92L1041.7 247.078H1041.77L1066.17 288H1034.04L1021.73 261.422ZM1064.77 249.258C1064.77 241.664 1066.24 234.914 1069.2 229.008C1072.15 223.055 1076.39 218.484 1081.92 215.297C1087.45 212.109 1093.95 210.516 1101.4 210.516C1112.79 210.516 1121.77 214.055 1128.33 221.133C1134.89 228.164 1138.17 237.75 1138.17 249.891V250.734C1138.17 262.594 1134.87 272.016 1128.26 279C1121.7 285.938 1112.79 289.406 1101.54 289.406C1090.71 289.406 1082.02 286.172 1075.45 279.703C1068.89 273.188 1065.35 264.375 1064.84 253.266L1064.77 249.258ZM1088.46 250.734C1088.46 257.766 1089.56 262.922 1091.77 266.203C1093.97 269.484 1097.23 271.125 1101.54 271.125C1109.98 271.125 1114.29 264.633 1114.48 251.648V249.258C1114.48 235.617 1110.12 228.797 1101.4 228.797C1093.48 228.797 1089.19 234.68 1088.53 246.445L1088.46 250.734ZM1196.25 261.844L1213.48 211.922H1243.29V288H1219.52V245.812L1204.2 288H1188.45L1173.96 248.062V288H1150.2V211.922H1179.3L1196.25 261.844ZM1327.17 288H1303.34V230.203H1282.38V288H1258.69V211.922H1327.17V288ZM1382.72 288C1381.88 286.453 1381.12 284.18 1380.47 281.18C1376.11 286.664 1370.02 289.406 1362.19 289.406C1355.02 289.406 1348.92 287.25 1343.91 282.938C1338.89 278.578 1336.38 273.117 1336.38 266.555C1336.38 258.305 1339.43 252.07 1345.52 247.852C1351.62 243.633 1360.48 241.523 1372.1 241.523H1379.41V237.516C1379.41 230.531 1376.39 227.039 1370.34 227.039C1364.72 227.039 1361.91 229.805 1361.91 235.336H1338.21C1338.21 227.977 1341.33 222 1347.56 217.406C1353.84 212.812 1361.84 210.516 1371.54 210.516C1381.24 210.516 1388.91 212.883 1394.53 217.617C1400.16 222.352 1403.04 228.844 1403.18 237.094V270.773C1403.27 277.758 1404.35 283.102 1406.41 286.805V288H1382.72ZM1367.88 272.531C1370.84 272.531 1373.27 271.898 1375.2 270.633C1377.16 269.367 1378.57 267.938 1379.41 266.344V254.18H1372.52C1364.27 254.18 1360.15 257.883 1360.15 265.289C1360.15 267.445 1360.88 269.203 1362.33 270.562C1363.78 271.875 1365.63 272.531 1367.88 272.531ZM1484.11 288H1460.34V259.805H1439.6V288H1415.91V211.922H1439.6V241.594H1460.34V211.922H1484.11V288ZM1541.34 211.922H1565.11V288H1541.34V243.703L1520.46 288H1496.62V211.922H1520.46V256.078L1541.34 211.922ZM1622.06 211.922H1645.83V288H1622.06V243.703L1601.18 288H1577.34V211.922H1601.18V256.078L1622.06 211.922Z" fill="black"/>
</svg>
